<?xml version="1.0" encoding="utf-8"?>
<svg version="1.1" xmlns:xlink="http://www.w3.org/1999/xlink" width="8px" height="4px" xmlns="http://www.w3.org/2000/svg">
  <g transform="matrix(1 0 0 1 -645 -814 )">
    <path d="M 0.845703125 3.80062499999997  C 0.712239583333314 3.92875000000004  0.500651041666686 3.92875000000004  0.3671875 3.80062499999997  L 0.256510416666686 3.69437500000004  C 0.123046875 3.56624999999997  0.123046875 3.36312499999997  0.256510416666686 3.23500000000001  L 3.50520833333331 0.116250000000036  C 3.638671875 -0.0118750000000318  3.85026041666669 -0.0118750000000318  3.98372395833331 0.116250000000036  L 4.09440104166669 0.222499999999968  C 4.22786458333331 0.350625000000036  4.22786458333331 0.553750000000036  4.09440104166669 0.681874999999991  L 0.845703125 3.80062499999997  Z M 7.740234375 3.22562500000004  C 7.89973958333331 3.38187500000004  7.89973958333331 3.63187500000004  7.740234375 3.78812500000004  C 7.57747395833331 3.94437500000004  7.31705729166669 3.94437500000004  7.154296875 3.78812500000004  L 4.82356770833331 1.55062499999997  C 4.66080729166669 1.39437499999997  4.66080729166669 1.14437499999997  4.82356770833331 0.988124999999968  C 4.986328125 0.831874999999968  5.24674479166669 0.831874999999968  5.40950520833331 0.988124999999968  L 7.740234375 3.22562500000004  Z " fill-rule="nonzero" fill="#66dda1" stroke="none" transform="matrix(1 0 0 1 645 814 )" />
  </g>
</svg>