<?xml version="1.0" encoding="utf-8"?>
<svg version="1.1" xmlns:xlink="http://www.w3.org/1999/xlink" width="11px" height="21px" xmlns="http://www.w3.org/2000/svg">
  <g transform="matrix(1 0 0 1 -184 -53 )">
    <path d="M 0.0378906249999886 7.12382812499999  C 0.797574933132069 6.90782888762726  1.60242506686791 6.90782888762726  2.36210937499999 7.12382812499999  L 2.36210937499999 1.0859375  C 2.36146353552783 0.501991512749669  1.88824286225031 0.0287708394722017  1.30429687499998 0.0281249999999886  L 1.095703125 0.0281249999999886  C 0.511757137749669 0.0287708394722017  0.0385364644722017 0.501991512749669  0.0378906249999886 1.0859375  L 0.0378906249999886 7.12382812499999  Z M 10.595703125 20.331640625  C 10.9953078249823 19.9061206114749  10.9752153109939 19.237476689443  10.55078125 18.83671875  L 4.80390625000001 13.4265625  C 4.38621122264937 14.099537305168  3.78946906067642 14.6429892559403  3.08046875000002 14.99609375  L 8.95781249999999 20.52890625  C 9.38417251153572 20.9264626610137  10.0512355855373 20.9062433465156  10.452734375 20.48359375  L 10.595703125 20.331640625  Z " fill-rule="nonzero" fill="#ef6a6a" stroke="none" transform="matrix(1 0 0 1 184 53 )" />
  </g>
</svg>