<?xml version="1.0" encoding="utf-8"?>
<svg version="1.1" xmlns:xlink="http://www.w3.org/1999/xlink" width="300px" height="170px" xmlns="http://www.w3.org/2000/svg">
  <g transform="matrix(1 0 0 1 -291 -279 )">
    <path d="M 291 279  L 591 279  L 591 449  L 291 449  L 291 279  " fill-rule="nonzero" fill="#cccccc" stroke="none" />
    <path d="M 303 291  L 579 291  L 579 437  L 303 437  L 303 291  " fill-rule="nonzero" fill="#ffffff" stroke="none" />
    <path d="M 459.75 330  C 452.61 330  447 324.39  447 317.25  C 447 310.11  452.61 304.5  459.75 304.5  C 466.89 304.5  472.5 310.11  472.5 317.25  C 472.5 324.39  466.89 330  459.75 330  " fill-rule="nonzero" fill="#cccccc" stroke="none" />
    <path d="M 308 433  L 308 357.65  L 374.75 323.4  L 468.2 386.42  L 521.6 343.95  L 575 386.42  L 575 433  L 308 433  " fill-rule="nonzero" fill="#169bd5" stroke="none" />
  </g>
</svg>