<svg t="1635092038945" class="icon" viewBox="0 0 1024 1024" version="1.1" xmlns="http://www.w3.org/2000/svg" p-id="18802" width="200" height="200"><path d="M512 0C794.770286 0 1024 229.229714 1024 512S794.770286 1024 512 1024 0 794.770286 0 512 229.229714 0 512 0z m132.624879 303.824176L515.297055 569.704088c15.753846 9.733626 32.711736 17.666813 50.367297 23.653275l59.617055 20.581274c30.314901 10.228747 47.002725 21.560264 47.002725 44.167033 0 22.561758-19.78233 34.545934-54.069451 30.044835-45.978725-6.166505-88.255297-24.530989-136.945934-48.746901l-51.458813 105.955869C498.069099 781.06444 562.95244 798.945055 624.246154 798.945055 740.205714 798.945055 810.197802 736.233495 810.197802 637.535648c0-71.961319-37.606681-109.973099-120.145582-138.746373l-55.363517-19.523517c-30.337407-10.296264-45.978725-17.498022-45.978725-40.05978 0-20.626286 18.578286-27.231648 51.998945-27.231648 39.125802 0 84.170549 12.715604 130.959473 33.679472l26.353934-108.487736A417.454418 417.454418 0 0 0 644.624879 303.824176zM303.486593 303.824176H181.169231a11.252747 11.252747 0 0 0-10.36378 15.596308L369.112615 792.868571a9.902418 9.902418 0 0 0 9.148484 6.076484 9.958681 9.958681 0 0 0 9.170989-6.076484l200.816527-473.403076a11.252747 11.252747 0 0 0-10.352527-15.641319h-119.391648a11.252747 11.252747 0 0 0-10.44255 7.066725L384.956484 468.283077a5.626374 5.626374 0 0 1-10.465055-0.078769l-60.506022-157.167121A11.252747 11.252747 0 0 0 303.486593 303.824176z" fill="#009AFE" p-id="18803"></path></svg>