<svg t="1635096541697" class="icon" viewBox="0 0 1024 1024" version="1.1" xmlns="http://www.w3.org/2000/svg" p-id="24422" width="200" height="200"><path d="M512 0C229.6 0 0 229.6 0 512s229.6 512 512 512 512-229.6 512-512S794.4 0 512 0zM260 400h63.2l32.8-52c4.8-8 14.4-12.8 24-11.2l88.8 13.6 54.4-81.6c6.4-9.6 19.2-13.6 30.4-8.8l104.8 48.8 96-74.4c7.2-5.6 16.8-4 22.4 3.2 5.6 7.2 4 16.8-3.2 22.4l-104 80c-4.8 4-11.2 4-16.8 1.6l-107.2-50.4-56 84.8c-3.2 4.8-9.6 8-16 7.2l-93.6-14.4-34.4 55.2c-3.2 4.8-8 7.2-13.6 7.2h-72c-8.8 0-16-7.2-16-16s7.2-15.2 16-15.2z m512 24v240c0 17.6-14.4 32-32 32h-32c-17.6 0-32-14.4-32-32V424c0-17.6 14.4-32 32-32h32c17.6 0 32 14.4 32 32zM633.6 504v160c0 17.6-14.4 32-32 32h-32c-17.6 0-32-14.4-32-32V504c0-17.6 14.4-32 32-32h32c17.6 0 32 14.4 32 32z m-139.2-40v200c0 17.6-14.4 32-32 32h-32c-17.6 0-32-14.4-32-32V464c0-17.6 14.4-32 32-32h32c17.6 0 32 14.4 32 32zM356 576v88c0 17.6-14.4 32-32 32h-32c-17.6 0-32-14.4-32-32V576c0-17.6 14.4-32 32-32h32c17.6 0 32 14.4 32 32zM800 752c0 13.6-10.4 24-24 24H248c-13.6 0-24-10.4-24-24s10.4-24 24-24h528c13.6 0 24 10.4 24 24z" fill="#2787F1" p-id="24423"></path></svg>