<svg t="1635098395187" class="icon" viewBox="0 0 1024 1024" version="1.1" xmlns="http://www.w3.org/2000/svg" p-id="28886" width="200" height="200"><path d="M0 0m78.769231 0l866.461538 0q78.769231 0 78.769231 78.769231l0 866.461538q0 78.769231-78.769231 78.769231l-866.461538 0q-78.769231 0-78.769231-78.769231l0-866.461538q0-78.769231 78.769231-78.769231Z" fill="#1690FF" p-id="28887"></path><path d="M769.969231 719.556923a44.898462 44.898462 0 0 1-44.898462 44.898462H295.778462a44.898462 44.898462 0 0 1-44.898462-44.898462V332.012308a44.898462 44.898462 0 0 1 44.898462-44.898462H393.846154V236.307692H295.778462A98.461538 98.461538 0 0 0 196.923077 334.769231v382.030769a98.461538 98.461538 0 0 0 98.067692 98.067692h429.292308a98.461538 98.461538 0 0 0 98.067692-98.067692v-241.427692h-52.381538z" fill="#FFFFFF" p-id="28888"></path><path d="M375.729231 415.901538c33.870769-69.316923 113.821538-106.732308 244.972307-115.396923h2.756924l-6.695385-89.796923a13.390769 13.390769 0 0 1 0-6.695384 10.24 10.24 0 0 1 6.301538-7.089231 11.815385 11.815385 0 0 1 13.39077 0l187.864615 131.938461a13.390769 13.390769 0 0 1 2.756923 15.36v2.363077l-166.203077 154.387693a11.815385 11.815385 0 0 1-8.270769 3.938461 11.027692 11.027692 0 0 1-4.726154 0 12.996923 12.996923 0 0 1-8.270769-11.027692L630.153846 409.206154c-129.575385 8.270769-200.861538 39.384615-231.581538 102.4a110.276923 110.276923 0 0 0-19.298462 65.772308l-9.846154-4.726154a200.073846 200.073846 0 0 1 6.301539-156.75077z" fill="#FFFFFF" p-id="28889"></path></svg>