<svg t="1622996273792" class="icon" viewBox="0 0 1024 1024" version="1.1" xmlns="http://www.w3.org/2000/svg" p-id="2616" width="200" height="200"><path d="M946.276 906.742L807.22 773.474c31.309-34.92 56.405-74.403 74.711-117.684 22.117-52.291 33.331-107.825 33.331-165.06 0-57.236-11.214-112.77-33.33-165.06-21.358-50.497-51.93-95.844-90.866-134.78-38.937-38.935-84.283-69.507-134.779-90.865-52.29-22.117-107.825-33.331-165.06-33.331-57.236 0-112.77 11.214-165.06 33.331-50.496 21.359-95.843 51.93-134.779 90.866s-69.508 84.282-90.866 134.778c-22.116 52.291-33.33 107.825-33.33 165.06 0 57.236 11.214 112.77 33.33 165.06 21.359 50.497 51.93 95.843 90.866 134.778 38.936 38.937 84.283 69.51 134.779 90.867 52.29 22.117 107.824 33.331 165.06 33.331 57.235 0 112.77-11.214 165.06-33.331 38.817-16.418 74.576-38.302 106.734-65.223l140.745 134.887c10.652 10.21 28.804 8.557 40.543-3.692 11.738-12.248 12.618-30.454 1.966-40.664z m-455.048-32.91c-211.244 0-383.104-171.858-383.104-383.102s171.86-383.105 383.104-383.105c211.244 0 383.103 171.86 383.103 383.104S702.472 873.833 491.228 873.833z" p-id="2617" fill="#8a8a8a"></path></svg>