<?xml version="1.0" encoding="utf-8"?>
<svg version="1.1" xmlns:xlink="http://www.w3.org/1999/xlink" width="11px" height="10px" xmlns="http://www.w3.org/2000/svg">
  <g transform="matrix(1 0 0 1 -643 -740 )">
    <path d="M 10.9671020507813 1.33463541666663  C 10.9637451171875 1.92057291666663  10.4736328125 2.39583333333337  9.869384765625 2.39583333333337  L 1.2152099609375 2.39583333333337  C 0.6109619140625 2.39583333333337  0.120849609375 1.92057291666663  0.120849609375 1.33463541666663  L 0.120849609375 1.20768229166663  C 0.120849609375 0.621744791666629  0.6109619140625 0.146484375  1.2152099609375 0.146484375  L 9.87274169921875 0.146484375  C 10.4769897460938 0.146484375  10.9671020507813 0.621744791666629  10.9671020507813 1.20768229166663  L 10.9671020507813 1.33463541666663  Z M 10.9671020507813 8.7890625  C 10.9637451171875 9.375  10.4736328125 9.85026041666663  9.869384765625 9.85026041666663  L 1.2152099609375 9.85026041666663  C 0.6109619140625 9.85026041666663  0.120849609375 9.375  0.120849609375 8.7890625  L 0.120849609375 8.662109375  C 0.120849609375 8.076171875  0.6109619140625 7.60091145833337  1.2152099609375 7.60091145833337  L 9.87274169921875 7.60091145833337  C 10.4769897460938 7.60091145833337  10.9671020507813 8.076171875  10.9671020507813 8.662109375  L 10.9671020507813 8.7890625  Z M 10.9671020507813 5.04557291666663  C 10.9637451171875 5.63151041666663  10.4736328125 6.10677083333337  9.869384765625 6.10677083333337  L 1.2152099609375 6.10677083333337  C 0.6109619140625 6.10677083333337  0.120849609375 5.63151041666663  0.120849609375 5.04557291666663  L 0.120849609375 4.91861979166663  C 0.120849609375 4.33268229166663  0.6109619140625 3.857421875  1.2152099609375 3.857421875  L 9.87274169921875 3.857421875  C 10.4769897460938 3.857421875  10.9671020507813 4.33268229166663  10.9671020507813 4.91861979166663  L 10.9671020507813 5.04557291666663  Z " fill-rule="nonzero" fill="#9dd5fc" stroke="none" transform="matrix(1 0 0 1 643 740 )" />
  </g>
</svg>