<?xml version="1.0" encoding="utf-8"?>
<svg version="1.1" xmlns:xlink="http://www.w3.org/1999/xlink" width="13px" height="5px" xmlns="http://www.w3.org/2000/svg">
  <g transform="matrix(1 0 0 1 -643 -804 )">
    <path d="M 6.7017525337838 0.819091796875  C 6.7017525337838 1.160888671875  6.39294763513516 1.435546875  6.00865709459458 1.435546875  L 0.704075168918905 1.435546875  C 0.319784628378386 1.435546875  0.0109797297297405 1.160888671875  0.0109797297297405 0.819091796875  L 0.0109797297297405 0.648193359375  C 0.0109797297297405 0.306396484375  0.319784628378386 0.03173828125  0.704075168918905 0.03173828125  L 6.00865709459458 0.03173828125  C 6.39294763513516 0.03173828125  6.7017525337838 0.306396484375  6.7017525337838 0.648193359375  L 6.7017525337838 0.819091796875  Z M 12.8435388513514 4.2431640625  C 12.8435388513514 4.6307373046875  12.4901288006757 4.945068359375  12.054370777027 5  L 0.834459459459481 5  C 0.398701435810835 4.945068359375  0.0452913851351582 4.6307373046875  0.0452913851351582 4.2431640625  C 0.0452913851351582 3.8555908203125  0.398701435810835 3.541259765625  0.834459459459481 3.541259765625  L 12.054370777027 3.541259765625  C 12.4901288006757 3.541259765625  12.8435388513514 3.8555908203125  12.8435388513514 4.2431640625  Z " fill-rule="nonzero" fill="#43dd8c" stroke="none" transform="matrix(1 0 0 1 643 804 )" />
  </g>
</svg>