<?xml version="1.0" encoding="utf-8"?>
<svg version="1.1" xmlns:xlink="http://www.w3.org/1999/xlink" width="19px" height="11px" xmlns="http://www.w3.org/2000/svg">
  <g transform="matrix(1 0 0 1 -640 -862 )">
    <path d="M 6.88872563073392 9.92373511904759  C 6.15334719036696 10.6023685515873  5.23071961009174 10.9809027777778  4.26042861238534 10.9843129960318  C 3.52845470183485 10.9843129960318  2.86797591743118 10.8103918650794  2.29941943807341 10.4693700396825  L 2.04407970183485 10.309089781746  C 0.396287270642176 9.26897321428567  -0.284618692660558 7.00799851190482  0.460973337155963 5.05735367063494  C 0.651627006880744 4.55946180555554  0.937607511467888 3.85013640873012  1.36317373853211 2.80319940476193  C 1.63894065366975 2.12456597222217  1.89768491972478 1.48344494047615  2.06791141055044 1.05034722222217  C 2.29601490825689 0.45696924603169  2.81690797018348 0.0716145833333712  3.39567803899081 0  L 15.6315581995413 0  C 16.2137327981652 0.0716145833333712  16.7346258600917 0.460379464285666  16.9627293577981 1.0605778769841  C 17.1261467889908 1.49708581349205  17.3814865252294 2.1347966269841  17.6504443807339 2.8066096230159  C 18.7807482798165 5.63368055555554  18.896502293578 5.99857390873012  18.8930977637615 6.32254464285711  C 18.8930977637615 8.03788442460313  18.0623924885321 9.61340525793651  16.7244122706422 10.4352678571429  C 16.1524512614679 10.7899305555555  15.4817588876147 10.9706721230159  14.7361668577981 10.9740823412699  C 13.7624713302752 10.9740823412699  12.8364392201835 10.5989583333334  12.1010607798165 9.92373511904759  C 11.3758959288991 10.5921378968254  10.4634819380734 10.9672619047619  9.50680905963304 10.9740823412699  C 8.53651806192659 10.9672619047619  7.62069954128441 10.5921378968254  6.88872563073392 9.92373511904759  Z " fill-rule="nonzero" fill="#ffffff" stroke="none" transform="matrix(1 0 0 1 640 862 )" />
  </g>
</svg>