<?xml version="1.0" encoding="utf-8"?>
<svg version="1.1" xmlns:xlink="http://www.w3.org/1999/xlink" width="15px" height="23px" xmlns="http://www.w3.org/2000/svg">
  <g transform="matrix(1 0 0 1 -180 -52 )">
    <path d="M 14.565625 22.2469460227273  C 15.156554614464 21.5876747326195  15.1266984523185 20.5530737964349  14.498828125 19.9322443181818  L 9.04140625000002 14.563671875  C 9.37293601697786 13.8727669180918  9.54557537434789 13.1104757259964  9.54557537434789 12.3375069455683  C 9.54557537434789 10.2701952538526  8.32021695192185 8.41924796988911  6.46953124999999 7.6910333806818  L 6.46953124999999 1.76257102272729  C 6.46717157484301 0.859780093948075  5.76783540856763 0.12847345837929  4.904296875 0.125781249999989  L 4.69570312500002 0.125781249999989  C 3.8320120392292 0.128249259215579  3.13243882946705 0.859621251239616  3.13007812500001 1.76257102272729  L 3.13007812500001 7.6910333806818  C 1.27618045545154 8.41672689734929  0.0476925582386798 10.2690118047612  0.0476925582386798 12.3385812133385  C 0.0476925582386798 15.0793727339121  2.17294088638562 17.301223258793  4.79456755823867 17.301223258793  C 5.40664671633641 17.301223258793  6.01294942014334 17.1774671873416  6.580078125 16.9367720170454  L 12.209765625 22.4760475852273  C 12.8403283601342 23.0929114769011  13.8290516681415 23.0615274649739  14.42265625 22.4058061079546  L 14.565625 22.2469460227273  Z M 4.14570312500001 7.42191051136365  L 4.14726562499999 1.75930397727274  C 4.15270782413211 1.4452977532759  4.39533504103349 1.19236469240354  4.69570312500002 1.1875710227273  L 4.904296875 1.1875710227273  C 5.20646937408458 1.19153409268546  5.4505061124313 1.4466634100479  5.45429687500001 1.76257102272729  L 5.45429687500001 7.42191051136365  C 5.02017208032782 7.35903386439264  4.5798279196722 7.35903386439264  4.14570312500001 7.42191051136365  Z M 4.80000000000001 16.2359907670455  C 2.7409163408563 16.2335152576046  1.07228975359561 14.4890420072866  1.06992187499998 12.3363636363636  C 1.06992187499998 10.1826590420616  2.73993473588507 8.43673650568184  4.80000000000001 8.43673650568184  C 6.86006526411495 8.43673650568184  8.53007812499999 10.1826590420616  8.53007812499999 12.3363636363636  C 8.53007812499999 14.4900682306656  6.86006526411495 16.2359907670455  4.80000000000001 16.2359907670455  Z M 13.802734375 20.7081676136364  C 14.0190618883663 20.9274013561233  14.029445598161 21.2867249136993  13.826171875 21.5192116477273  L 13.683203125 21.6780717329546  C 13.4739626161509 21.9067885699022  13.1279001390599 21.9176968891892  12.905859375 21.7025745738636  L 7.51953125 16.4026100852273  C 7.87928014974994 16.1391177930028  8.20251353200234 15.8249663498428  8.48007812499998 15.4690518465909  L 13.802734375 20.7081676136364  Z " fill-rule="nonzero" fill="#512c56" stroke="none" transform="matrix(1 0 0 1 180 52 )" />
  </g>
</svg>