<?xml version="1.0" encoding="utf-8"?>
<svg version="1.1" xmlns:xlink="http://www.w3.org/1999/xlink" width="12px" height="12px" viewBox="889 1191  12 12" xmlns="http://www.w3.org/2000/svg">
  <path d="M 895 1191  C 898.36 1191  901 1193.64  901 1197  C 901 1200.36  898.36 1203  895 1203  C 891.64 1203  889 1200.36  889 1197  C 889 1193.64  891.64 1191  895 1191  Z " fill-rule="nonzero" fill="#f0f0f0" stroke="none" />
  <path d="M 895 1191.5  C 898.08 1191.5  900.5 1193.92  900.5 1197  C 900.5 1200.08  898.08 1202.5  895 1202.5  C 891.92 1202.5  889.5 1200.08  889.5 1197  C 889.5 1193.92  891.92 1191.5  895 1191.5  Z " stroke-width="1" stroke="#797979" fill="none" />
  <path d="M 895 1200  C 893.32 1200  892 1198.68  892 1197  C 892 1195.32  893.32 1194  895 1194  C 896.68 1194  898 1195.32  898 1197  C 898 1198.68  896.68 1200  895 1200  " fill-rule="nonzero" fill="#797979" stroke="none" />
</svg>