<?xml version="1.0" encoding="utf-8"?>
<svg version="1.1" xmlns:xlink="http://www.w3.org/1999/xlink" width="12px" height="12px" viewBox="974 1191  12 12" xmlns="http://www.w3.org/2000/svg">
  <path d="M 980 1191  C 983.36 1191  986 1193.64  986 1197  C 986 1200.36  983.36 1203  980 1203  C 976.64 1203  974 1200.36  974 1197  C 974 1193.64  976.64 1191  980 1191  Z " fill-rule="nonzero" fill="#ffffff" stroke="none" />
  <path d="M 980 1191.5  C 983.08 1191.5  985.5 1193.92  985.5 1197  C 985.5 1200.08  983.08 1202.5  980 1202.5  C 976.92 1202.5  974.5 1200.08  974.5 1197  C 974.5 1193.92  976.92 1191.5  980 1191.5  Z " stroke-width="1" stroke="#797979" fill="none" />
  <path d="M 980 1200  C 978.32 1200  977 1198.68  977 1197  C 977 1195.32  978.32 1194  980 1194  C 981.68 1194  983 1195.32  983 1197  C 983 1198.68  981.68 1200  980 1200  " fill-rule="nonzero" fill="#797979" stroke="none" />
</svg>