<?xml version="1.0" encoding="utf-8"?>
<svg version="1.1" xmlns:xlink="http://www.w3.org/1999/xlink" width="12px" height="12px" viewBox="270 296  12 12" xmlns="http://www.w3.org/2000/svg">
  <path d="M 276 296  C 279.36 296  282 298.64  282 302  C 282 305.36  279.36 308  276 308  C 272.64 308  270 305.36  270 302  C 270 298.64  272.64 296  276 296  Z " fill-rule="nonzero" fill="#ffffff" stroke="none" />
  <path d="M 276 296.5  C 279.08 296.5  281.5 298.92  281.5 302  C 281.5 305.08  279.08 307.5  276 307.5  C 272.92 307.5  270.5 305.08  270.5 302  C 270.5 298.92  272.92 296.5  276 296.5  Z " stroke-width="1" stroke="#797979" fill="none" />
  <path d="M 276 305  C 274.32 305  273 303.68  273 302  C 273 300.32  274.32 299  276 299  C 277.68 299  279 300.32  279 302  C 279 303.68  277.68 305  276 305  " fill-rule="nonzero" fill="#797979" stroke="none" />
</svg>