<?xml version="1.0" encoding="utf-8"?>
<svg version="1.1" xmlns:xlink="http://www.w3.org/1999/xlink" width="12px" height="12px" viewBox="170 446  12 12" xmlns="http://www.w3.org/2000/svg">
  <path d="M 176 446  C 179.36 446  182 448.64  182 452  C 182 455.36  179.36 458  176 458  C 172.64 458  170 455.36  170 452  C 170 448.64  172.64 446  176 446  Z " fill-rule="nonzero" fill="#ffffff" stroke="none" />
  <path d="M 176 446.5  C 179.08 446.5  181.5 448.92  181.5 452  C 181.5 455.08  179.08 457.5  176 457.5  C 172.92 457.5  170.5 455.08  170.5 452  C 170.5 448.92  172.92 446.5  176 446.5  Z " stroke-width="1" stroke="#797979" fill="none" />
  <path d="M 176 455  C 174.32 455  173 453.68  173 452  C 173 450.32  174.32 449  176 449  C 177.68 449  179 450.32  179 452  C 179 453.68  177.68 455  176 455  " fill-rule="nonzero" fill="#797979" stroke="none" />
</svg>