<?xml version="1.0" encoding="utf-8"?>
<svg version="1.1" xmlns:xlink="http://www.w3.org/1999/xlink" width="12px" height="12px" viewBox="270 446  12 12" xmlns="http://www.w3.org/2000/svg">
  <path d="M 276 446  C 279.36 446  282 448.64  282 452  C 282 455.36  279.36 458  276 458  C 272.64 458  270 455.36  270 452  C 270 448.64  272.64 446  276 446  Z " fill-rule="nonzero" fill="#f0f0f0" stroke="none" />
  <path d="M 276 446.5  C 279.08 446.5  281.5 448.92  281.5 452  C 281.5 455.08  279.08 457.5  276 457.5  C 272.92 457.5  270.5 455.08  270.5 452  C 270.5 448.92  272.92 446.5  276 446.5  Z " stroke-width="1" stroke="#797979" fill="none" />
  <path d="M 276 455  C 274.32 455  273 453.68  273 452  C 273 450.32  274.32 449  276 449  C 277.68 449  279 450.32  279 452  C 279 453.68  277.68 455  276 455  " fill-rule="nonzero" fill="#797979" stroke="none" />
</svg>