<?xml version="1.0" encoding="utf-8"?>
<svg version="1.1" xmlns:xlink="http://www.w3.org/1999/xlink" width="12px" height="12px" viewBox="889 1139  12 12" xmlns="http://www.w3.org/2000/svg">
  <path d="M 895 1139  C 898.36 1139  901 1141.64  901 1145  C 901 1148.36  898.36 1151  895 1151  C 891.64 1151  889 1148.36  889 1145  C 889 1141.64  891.64 1139  895 1139  Z " fill-rule="nonzero" fill="#ffffff" stroke="none" />
  <path d="M 895 1139.5  C 898.08 1139.5  900.5 1141.92  900.5 1145  C 900.5 1148.08  898.08 1150.5  895 1150.5  C 891.92 1150.5  889.5 1148.08  889.5 1145  C 889.5 1141.92  891.92 1139.5  895 1139.5  Z " stroke-width="1" stroke="#797979" fill="none" />
  <path d="M 895 1148  C 893.32 1148  892 1146.68  892 1145  C 892 1143.32  893.32 1142  895 1142  C 896.68 1142  898 1143.32  898 1145  C 898 1146.68  896.68 1148  895 1148  " fill-rule="nonzero" fill="#797979" stroke="none" />
</svg>