<?xml version="1.0" encoding="utf-8"?>
<svg version="1.1" xmlns:xlink="http://www.w3.org/1999/xlink" width="12px" height="12px" viewBox="974 1139  12 12" xmlns="http://www.w3.org/2000/svg">
  <path d="M 980 1139  C 983.36 1139  986 1141.64  986 1145  C 986 1148.36  983.36 1151  980 1151  C 976.64 1151  974 1148.36  974 1145  C 974 1141.64  976.64 1139  980 1139  Z " fill-rule="nonzero" fill="#f0f0f0" stroke="none" />
  <path d="M 980 1139.5  C 983.08 1139.5  985.5 1141.92  985.5 1145  C 985.5 1148.08  983.08 1150.5  980 1150.5  C 976.92 1150.5  974.5 1148.08  974.5 1145  C 974.5 1141.92  976.92 1139.5  980 1139.5  Z " stroke-width="1" stroke="#797979" fill="none" />
  <path d="M 980 1148  C 978.32 1148  977 1146.68  977 1145  C 977 1143.32  978.32 1142  980 1142  C 981.68 1142  983 1143.32  983 1145  C 983 1146.68  981.68 1148  980 1148  " fill-rule="nonzero" fill="#797979" stroke="none" />
</svg>