<?xml version="1.0" encoding="utf-8"?>
<svg version="1.1" xmlns:xlink="http://www.w3.org/1999/xlink" width="12px" height="12px" viewBox="170 296  12 12" xmlns="http://www.w3.org/2000/svg">
  <path d="M 176 296  C 179.36 296  182 298.64  182 302  C 182 305.36  179.36 308  176 308  C 172.64 308  170 305.36  170 302  C 170 298.64  172.64 296  176 296  Z " fill-rule="nonzero" fill="#f0f0f0" stroke="none" />
  <path d="M 176 296.5  C 179.08 296.5  181.5 298.92  181.5 302  C 181.5 305.08  179.08 307.5  176 307.5  C 172.92 307.5  170.5 305.08  170.5 302  C 170.5 298.92  172.92 296.5  176 296.5  Z " stroke-width="1" stroke="#797979" fill="none" />
  <path d="M 176 305  C 174.32 305  173 303.68  173 302  C 173 300.32  174.32 299  176 299  C 177.68 299  179 300.32  179 302  C 179 303.68  177.68 305  176 305  " fill-rule="nonzero" fill="#797979" stroke="none" />
</svg>