<?xml version="1.0" encoding="utf-8"?>
<svg version="1.1" xmlns:xlink="http://www.w3.org/1999/xlink" width="12px" height="12px" viewBox="1007 296  12 12" xmlns="http://www.w3.org/2000/svg">
  <path d="M 1013 296  C 1016.36 296  1019 298.64  1019 302  C 1019 305.36  1016.36 308  1013 308  C 1009.64 308  1007 305.36  1007 302  C 1007 298.64  1009.64 296  1013 296  Z " fill-rule="nonzero" fill="#f0f0f0" stroke="none" />
  <path d="M 1013 296.5  C 1016.08 296.5  1018.5 298.92  1018.5 302  C 1018.5 305.08  1016.08 307.5  1013 307.5  C 1009.92 307.5  1007.5 305.08  1007.5 302  C 1007.5 298.92  1009.92 296.5  1013 296.5  Z " stroke-width="1" stroke="#797979" fill="none" />
  <path d="M 1013 305  C 1011.32 305  1010 303.68  1010 302  C 1010 300.32  1011.32 299  1013 299  C 1014.68 299  1016 300.32  1016 302  C 1016 303.68  1014.68 305  1013 305  " fill-rule="nonzero" fill="#797979" stroke="none" />
</svg>