<svg t="1629197004142" class="icon" viewBox="0 0 1024 1024" version="1.1" xmlns="http://www.w3.org/2000/svg" p-id="5323" width="16" height="16"><path d="M512 68.544a440.96 440.96 0 0 1 313.472 129.92A440.96 440.96 0 0 1 955.392 512a440.96 440.96 0 0 1-129.92 313.6A440.96 440.96 0 0 1 512 955.392a440.96 440.96 0 0 1-313.472-129.92A440.96 440.96 0 0 1 68.608 512a440.96 440.96 0 0 1 129.92-313.6A440.96 440.96 0 0 1 512 68.608zM512 0a512 512 0 1 0 0.064 1024.064A512 512 0 0 0 512 0z" p-id="5324" fill="#7459EE"></path><path d="M757.76 477.696H266.24a34.24 34.24 0 1 0 0 68.608h491.52a34.24 34.24 0 1 0 0-68.608z" p-id="5325" fill="#7459EE"></path></svg>