<?xml version="1.0" encoding="utf-8"?>
<svg version="1.1" xmlns:xlink="http://www.w3.org/1999/xlink" width="10px" height="10px" xmlns="http://www.w3.org/2000/svg">
  <g transform="matrix(1 0 0 1 -1209 -267 )">
    <path d="M 9.5984375 8.98671875  L 5.7330078125 5.1212890625  L 9.5984375 1.255859375  C 9.7935546875 1.0607421875  9.7935546875 0.7390625  9.5984375 0.5439453125  L 9.57734375 0.5228515625  C 9.3822265625 0.327734375  9.060546875 0.327734375  8.8654296875 0.5228515625  L 5 4.3935546875  L 1.1345703125 0.5228515625  C 0.939453125 0.327734375  0.6177734375 0.327734375  0.42265625 0.5228515625  L 0.4015625 0.5439453125  C 0.201171875 0.7390625  0.201171875 1.0607421875  0.4015625 1.255859375  L 4.2669921875 5.1212890625  L 0.4015625 8.98671875  C 0.2064453125 9.1818359375  0.2064453125 9.503515625  0.4015625 9.6986328125  L 0.42265625 9.7197265625  C 0.6177734375 9.91484375  0.939453125 9.91484375  1.1345703125 9.7197265625  L 5 5.854296875  L 8.8654296875 9.7197265625  C 9.060546875 9.91484375  9.3822265625 9.91484375  9.57734375 9.7197265625  L 9.5984375 9.6986328125  C 9.7935546875 9.503515625  9.7935546875 9.1818359375  9.5984375 8.98671875  Z " fill-rule="nonzero" fill="#7459ee" stroke="none" transform="matrix(1 0 0 1 1209 267 )" />
  </g>
</svg>