<svg t="1634978045336" class="icon" viewBox="0 0 1024 1024" version="1.1" xmlns="http://www.w3.org/2000/svg" p-id="4424" width="200" height="200"><path d="M930.56 403.84l-203.52-206.72a31.36 31.36 0 0 0-19.2-7.04H154.88a32 32 0 0 0-32 32V640a31.36 31.36 0 0 0 5.12 16.64l5.76 5.76 204.16 206.72a31.36 31.36 0 0 0 23.68 10.88h549.12a32 32 0 0 0 32-32V429.44a31.36 31.36 0 0 0-12.16-25.6zM186.88 250.88h485.12v114.56h64V296.32l101.12 101.12h-473.6a32 32 0 0 0-32 32v346.24l-102.4-103.68h70.4v-64H186.88z m693.76 568.32H395.52V461.44h485.12z" fill="#8a8a8a" p-id="4425"></path></svg>