<?xml version="1.0" encoding="utf-8"?>
<svg version="1.1" xmlns:xlink="http://www.w3.org/1999/xlink" width="20px" height="20px" xmlns="http://www.w3.org/2000/svg">
  <defs>
    <mask fill="white" id="clip1">
      <path d="M 0 10  C 0 4.40000000000009  4.39999999999998 0  10 0  C 15.6 0  20 4.40000000000009  20 10  C 20 10.888552086773  19.8892248352041 11.7468927649652  19.6804575580595 12.5622389821299  C 18.5734924550618 16.8855209715616  14.7114479132271 20  10 20  C 4.39999999999998 20  0 15.5999999999999  0 10  Z " fill-rule="evenodd" />
    </mask>
  </defs>
  <g transform="matrix(1 0 0 1 -846 -1013 )">
    <path d="M 0 10  C 0 4.40000000000009  4.39999999999998 0  10 0  C 15.6 0  20 4.40000000000009  20 10  C 20 10.888552086773  19.8892248352041 11.7468927649652  19.6804575580595 12.5622389821299  C 18.5734924550618 16.8855209715616  14.7114479132271 20  10 20  C 4.39999999999998 20  0 15.5999999999999  0 10  Z " fill-rule="nonzero" fill="#ffffff" stroke="none" transform="matrix(1 0 0 1 846 1013 )" />
    <path d="M 0 10  C 0 4.40000000000009  4.39999999999998 0  10 0  C 15.6 0  20 4.40000000000009  20 10  C 20 10.888552086773  19.8892248352041 11.7468927649652  19.6804575580595 12.5622389821299  C 18.5734924550618 16.8855209715616  14.7114479132271 20  10 20  C 4.39999999999998 20  0 15.5999999999999  0 10  Z " stroke-width="2" stroke="#d7d7d7" fill="none" transform="matrix(1 0 0 1 846 1013 )" mask="url(#clip1)" />
  </g>
</svg>