<?xml version="1.0" encoding="utf-8"?>
<svg version="1.1" xmlns:xlink="http://www.w3.org/1999/xlink" width="19px" height="11px" xmlns="http://www.w3.org/2000/svg">
  <g transform="matrix(1 0 0 1 -640 -862 )">
    <path d="M 6.88872563073392 9.815673828125  C 6.15334719036696 10.4837036132813  5.23071961009174 10.8563232421875  4.26042861238534 10.8596801757813  C 3.52845470183485 10.8596801757813  2.86797591743118 10.6884765625  2.29941943807341 10.352783203125  L 2.04407970183485 10.1950073242188  C 0.396287270642176 9.171142578125  -0.284618692660558 6.9354248046875  0.460973337155963 5.008544921875  C 0.651627006880744 4.5184326171875  0.937607511467888 3.81683349609375  1.36317373853211 2.78289794921875  C 1.63894065366975 2.1148681640625  1.89768491972478 1.48040771484375  2.06791141055044 1.05072021484375  C 2.29601490825689 0.4632568359375  2.81690797018348 0.08392333984375  3.39567803899081 0  L 15.6315581995413 0  C 16.2137327981652 0.08392333984375  16.7346258600917 0.46661376953125  16.9627293577981 1.060791015625  C 17.1261467889908 1.490478515625  17.3814865252294 2.12158203125  17.6504443807339 2.7862548828125  C 18.7807482798165 5.5792236328125  18.896502293578 5.93841552734375  18.8930977637615 6.25732421875  C 18.8930977637615 7.94921875  18.0623924885321 9.5068359375  16.7244122706422 10.3192138671875  C 16.1524512614679 10.6683349609375  15.4817588876147 10.8462524414063  14.7361668577981 10.8529663085938  C 13.7624713302752 10.8529663085938  12.8364392201835 10.4837036132813  12.1010607798165 9.815673828125  C 11.3758959288991 10.4769897460938  10.4634819380734 10.8462524414063  9.50680905963304 10.8529663085938  C 8.53651806192659 10.8462524414063  7.62069954128441 10.4769897460938  6.88872563073392 9.815673828125  Z " fill-rule="nonzero" fill="#f9e5b9" stroke="none" transform="matrix(1 0 0 1 640 862 )" />
  </g>
</svg>