<?xml version="1.0" encoding="utf-8"?>
<svg version="1.1" xmlns:xlink="http://www.w3.org/1999/xlink" width="35px" height="35px" xmlns="http://www.w3.org/2000/svg">
  <g transform="matrix(1 0 0 1 -167 -46 )">
    <path d="M 34.992004751462 17.5  C 34.9951515798846 15.1884497287228  34.5304684090539 12.8998976009748  33.6256167763158 10.7705759447674  C 30.9018748296631 4.33668651882724  24.5645182483192 0.152644211470715  17.5431743421279 0.152644211470715  C 7.90645140465637 0.152644211470715  0.0943439327711531 7.91933245386821  0.0943439327711531 17.5000279324009  C 0.0943439327711531 27.0807234109337  7.90645140465637 34.8474116533312  17.5431743421279 34.8474116533312  C 27.1798972795994 34.8474116533312  34.9920047514846 27.0807234109337  34.9920047514846 17.5000279324009  Z M 27.1718521564327 25.2699173328488  C 27.6063296117562 25.6775536274528  27.6270710481374 26.3578638004801  27.2182245979532 26.7909134265988  L 27.0719115497076 26.9455168968023  C 26.661020975696 27.375538288606  25.978354087098 27.3961102655662  25.5420207419591 26.9916197311047  L 19.526795504386 21.3634970021802  C 18.9287264816469 21.6577548535798  18.2704256534646 21.8108407212887  17.6031251801514 21.8108407212887  C 15.2078537553753 21.8108407212887  13.266102610707 19.8803788274615  13.266102610707 17.4990333993411  C 13.266102610707 15.5733623721306  14.5504616330495 13.881136334065  16.4130459612573 13.3527321039244  L 16.4130459612573 7.20952943313955  C 16.4137069080856 6.61539834146043  16.8979970707965 6.1339238192304  17.4956026133041 6.13326671511629  L 17.709075749269 6.13326671511629  C 18.3066812917767 6.1339238192304  18.7909714544875 6.61539834146043  18.7916324013158 7.20952943313955  L 18.7916324013158 13.3527321039244  C 20.654370290039 13.8802040318129  21.939157104322 15.5721360919551  21.939157104322 17.497698331709  C 21.939157104322 18.2988396966153  21.7145492908087 19.0841239486809  21.2905473318713 19.7653978924419  L 27.1718521564327 25.2699173328488  Z " fill-rule="nonzero" fill="#f9db91" stroke="none" transform="matrix(1 0 0 1 167 46 )" />
  </g>
</svg>