<?xml version="1.0" encoding="utf-8"?>
<svg version="1.1" xmlns:xlink="http://www.w3.org/1999/xlink" width="36px" height="36px" xmlns="http://www.w3.org/2000/svg">
  <g transform="matrix(1 0 0 1 -167 -46 )">
    <path d="M 35.8977272727273 18  C 35.8977272727273 8.11550071022725  27.8844992897727 0.10227272727272  18 0.10227272727272  C 8.11550071022725 0.10227272727272  0.102272727272748 8.11550071022725  0.102272727272748 18  C 0.102272727272748 27.8844992897727  8.11550071022725 35.8977272727273  18 35.8977272727273  C 27.8844992897727 35.8977272727273  35.8977272727273 27.8844992897727  35.8977272727273 18  Z M 34.8510298295454 18.5193536931818  C 34.7250345475009 22.8102711822993  32.9610060210496 26.8901232199752  29.9211647727273 29.9211647727273  C 26.8901232199752 32.9610060210496  22.8102711822993 34.7250345475009  18.5193536931818 34.8510298295454  L 18.5193536931818 33.3409090909091  C 18.5193536931818 33.0540779663964  18.2868311245126 32.8215553977273  18 32.8215553977273  C 17.7131688754874 32.8215553977273  17.4806463068182 33.0540779663964  17.4806463068182 33.3409090909091  L 17.4806463068182 34.8510298295454  C 8.57331727882018 34.5852620923292  1.41473790767077 27.4266827211798  1.14897017045456 18.5193536931818  L 2.65909090909093 18.5193536931818  C 2.94592203360355 18.5193536931818  3.17844460227275 18.2868311245126  3.17844460227275 18  C 3.17844460227275 17.7131688754874  2.94592203360355 17.4806463068182  2.65909090909093 17.4806463068182  L 1.14897017045456 17.4806463068182  C 1.41473790767077 8.57331727882018  8.57331727882018 1.41473790767074  17.4806463068182 1.14897017045453  L 17.4806463068182 2.65909090909091  C 17.4806463068182 2.94592203360352  17.7131688754874 3.17844460227272  18 3.17844460227272  C 18.2868311245126 3.17844460227272  18.5193536931818 2.94592203360352  18.5193536931818 2.65909090909091  L 18.5193536931818 1.14897017045453  C 27.4266827211798 1.41473790767074  34.5852620923292 8.57331727882018  34.8510298295454 17.4806463068182  L 33.3409090909091 17.4806463068182  C 33.0540779663964 17.4806463068182  32.8215553977273 17.7131688754874  32.8215553977273 18  C 32.8215553977273 18.2868311245126  33.0540779663964 18.5193536931818  33.3409090909091 18.5193536931818  L 34.8510298295454 18.5193536931818  Z " fill-rule="nonzero" fill="#512c56" stroke="none" transform="matrix(1 0 0 1 167 46 )" />
  </g>
</svg>